# xmcd
#
# Track frame offsets:
#	150
#	20877
#	36803
#	54006
#	78338
#	90028
#	103681
#	113748
#	136625
#	149911
#	160716
#
# Disc length: 2582 seconds
#
# Revision: 0
# Processed by: cddbd v1.5.1PL0 Copyright (c) Steve Scherf et al.
# Submitted via: dBpowerAMP V4.0
#
DISCID=800a140b
DTITLE=LUIZ GONZAGA - show de despedida
DYEAR=2004
DGENRE=forro
TTITLE0=Danado De Bom
TTITLE1=Terra, Vida E Esperança
TTITLE2=Aproveita Gente (Part. Especial: Sivuca)
TTITLE3=Pense N'Eu (Part. Especial: Gonzaguinha)
TTITLE4=Sete Meninas (Part. Especial: Gonzaguinha)
TTITLE5=Sebastiana (Part. Especial: Guadalupe)
TTITLE6=Pagode Russo
TTITLE7=Respeita Januário - Riacho Do Navio - Forró No Escuro (Part. Especial: Fagner)
TTITLE8=Sanfoninha Choradeira (Part. Especial: Elba Ramalho)
TTITLE9=Boiadeiro
TTITLE10=Asa Branca (Part. Especial: Fagner, Sivuca e Guadalupe)
EXTD=
EXTT0=
EXTT1=
EXTT2=
EXTT3=
EXTT4=
EXTT5=
EXTT6=
EXTT7=
EXTT8=
EXTT9=
EXTT10=
PLAYORDER=
